<svg xmlns="http://www.w3.org/2000/svg" viewBox="0 0 128 128" width="128" height="128">
  <defs>
    <linearGradient id="bl-bg" x1="0" y1="0" x2="0" y2="1">
      <stop offset="0" stop-color="#ffffff"/>
      <stop offset="1" stop-color="#e8eef6"/>
    </linearGradient>
    <linearGradient id="bl-fg" x1="0" y1="0" x2="1" y2="0">
      <stop offset="0" stop-color="#16a34a"/>
      <stop offset="1" stop-color="#2563eb"/>
    </linearGradient>
  </defs>

  <rect x="0" y="0" width="128" height="128" rx="28" fill="url(#bl-bg)"/>
  <rect x="1" y="1" width="126" height="126" rx="27" fill="none" stroke="#0f172a" stroke-opacity="0.12" stroke-width="2"/>

  <rect x="44" y="24" width="40" height="80" rx="10" fill="#2563eb" fill-opacity="0.10"/>

  <g fill="url(#bl-fg)">
    <rect x="20" y="56" width="10" height="16" rx="5" opacity="0.42"/>
    <rect x="34" y="46" width="10" height="36" rx="5" opacity="0.62"/>
    <rect x="48" y="34" width="10" height="60" rx="5"/>
    <rect x="62" y="26" width="10" height="76" rx="5"/>
    <rect x="76" y="40" width="10" height="48" rx="5"/>
    <rect x="90" y="50" width="10" height="28" rx="5" opacity="0.58"/>
    <rect x="104" y="58" width="10" height="12" rx="5" opacity="0.38"/>
  </g>
</svg>
